<svg width="325" height="700" viewBox="0 0 325 700" fill="none" xmlns="http://www.w3.org/2000/svg">
<path d="M324 383.966L135.383 197.472L127.316 189.617L-59.1781 1M314.766 389.91L127.847 205.114L119.887 197.366L-64.9092 10.4471M305.532 395.747L120.311 212.65L112.457 205.008L-70.6408 19.7872M296.297 401.586L112.774 220.187L104.92 212.545L-76.5857 29.0229M286.955 407.317L105.131 227.51L97.3829 219.974L-82.4242 38.1501M277.508 413.155L97.3827 235.047L89.7404 227.616L-88.2622 47.4911M268.381 418.993L89.9534 242.583L82.3109 235.153L-94.0996 56.7257M259.04 424.725L82.3109 250.013L74.7747 242.689L-99.9374 66.0664M249.593 430.775L74.5628 257.761L67.1329 250.544L-105.881 75.5131M240.678 436.188L67.2398 265.085L59.8099 257.867L-111.612 84.641M231.231 442.345L59.5965 272.622L52.2727 265.51L-117.451 93.8759M221.997 448.182L52.0611 280.157L44.8434 273.151L-123.288 103.216M212.762 454.021L44.4182 287.694L37.2005 280.688L-129.126 112.451M203.314 459.964L36.7749 295.336L29.6635 288.437L-134.859 121.791M194.081 465.696L29.24 302.66L22.2344 295.866L-140.802 131.026M184.846 471.534L21.7036 310.196L14.698 303.403L-146.64 140.26M175.611 477.266L14.1668 317.626L7.2675 310.939L-152.372 149.495M166.271 483.21L6.52552 325.269L-0.267676 318.688L-158.209 158.942M157.035 489.048L-1.0125 332.699L-7.80569 326.118L-164.049 168.07M147.695 494.78L-8.65416 340.235L-15.3413 333.76L-169.992 177.411M138.355 500.724L-16.2962 347.771L-22.8771 341.402L-175.83 186.751M129.119 506.562L-23.8336 355.308L-30.4147 348.939L-181.669 195.986M119.674 512.611L-31.3686 362.737L-37.8436 356.474L-187.4 205.22M110.546 518.025L-39.0105 370.06L-45.3791 363.904L-193.343 214.348M101.417 523.969L-46.4412 377.704L-52.7036 371.547L-198.969 223.689M92.0755 529.913L-54.0843 385.346L-60.3469 379.296L-204.914 233.136M82.7359 535.751L-61.7255 392.776L-67.8818 386.832L-210.751 242.37M73.5019 541.588L-69.2611 400.418L-75.3111 394.474L-216.482 251.711M64.0534 547.427L-77.0113 407.848L-83.0615 402.01L-222.64 260.945M54.8201 553.159L-84.5465 415.278L-90.4904 409.546L-228.371 270.18M45.5868 559.103L-92.0815 422.921L-97.9194 417.189L-234.102 279.521M36.3504 565.046L-99.6194 430.562L-105.457 424.937L-239.941 288.967M27.1167 570.778L-107.155 437.992L-112.887 432.473L-245.778 297.989M17.7759 576.51L-114.798 445.423L-120.423 439.904L-251.617 307.331M8.5405 582.348L-122.335 452.853L-127.96 447.439L-257.455 316.564M-0.799515 588.398L-129.976 460.389L-135.496 455.081L-263.292 325.905M-9.92817 593.918L-137.513 467.819L-142.926 462.512L-269.131 335.14M-19.268 599.862L-145.154 475.462L-150.568 470.261L-274.968 344.375M-28.3968 605.7L-152.585 482.892L-157.892 477.797L-280.7 353.609M-37.8421 611.643L-160.332 490.533L-165.533 485.438L-286.643 362.949M-47.0773 617.375L-167.869 497.964L-173.07 492.975L-292.481 372.29M-56.4185 623.214L-175.511 505.5L-180.606 500.618L-298.32 381.525M-65.6535 629.157L-183.048 513.142L-188.037 508.259L-304.052 390.865M-74.8872 634.677L-190.584 520.254L-195.572 515.478L-309.995 399.781M-84.1223 640.621L-198.12 527.897L-203.003 523.226L-315.727 409.228M-93.5687 646.565L-205.869 535.539L-210.645 530.868L-321.671 418.569M-102.697 652.297L-213.298 542.969L-217.969 538.405L-327.297 427.803M-112.037 658.24L-220.941 550.611L-225.611 546.153L-333.24 437.249M-121.166 664.079L-228.371 558.041L-232.935 553.583L-338.973 446.378M-130.507 669.916L-236.014 565.577L-240.472 561.225L-344.811 455.719M-139.742 675.648L-243.55 573.007L-248.008 568.762L-350.649 464.953M-149.4 681.699L-251.51 580.756L-255.862 576.51L-356.804 474.4M-158.741 687.537L-259.152 588.292L-263.398 584.153L-362.642 483.741M-167.55 693.268L-266.263 595.616L-270.509 591.582L-368.161 492.869M-176.891 699L-273.907 603.046L-278.046 599.013L-374 501.998" stroke="url(#paint0_linear_628_216)" stroke-miterlimit="10" stroke-linecap="round"/>
<defs>
<linearGradient id="paint0_linear_628_216" x1="-80.3437" y1="634.967" x2="-57.0307" y2="0.595341" gradientUnits="userSpaceOnUse">
<stop offset="0.265625" stop-color="#C890FF"/>
<stop offset="1" stop-color="#7919FF"/>
</linearGradient>
</defs>
</svg>
