<svg width="338" height="708" viewBox="0 0 338 708" fill="none" xmlns="http://www.w3.org/2000/svg">
<path d="M1.28186 287.759L226.948 148.363L236.572 142.519L460.646 0.578261M8.94582 295.624L232.576 157.502L242.073 151.738L464.111 11.0708M16.634 303.385L238.228 166.537L247.597 160.853L467.599 21.4591M24.323 311.148L243.881 175.574L253.25 169.889L471.319 31.7935M32.1394 318.83L249.685 184.425L258.927 178.821L474.96 41.9984M40.0348 326.639L255.544 193.509L264.659 187.984L478.552 52.4115M47.6192 334.377L261.092 202.521L270.207 196.996L482.168 62.7207M55.4348 342.059L266.872 211.476L275.86 206.031L485.76 73.1335M63.2822 350.076L272.683 220.766L281.543 215.401L489.432 83.6734M70.7547 357.352L278.175 229.547L287.036 224.181L492.967 93.8547M78.5793 365.472L283.932 238.607L292.665 233.321L496.584 104.165M86.2672 373.233L289.583 247.641L298.189 242.435L500.176 114.576M93.9559 380.995L295.339 256.701L303.945 251.495L503.792 124.886M101.828 388.908L301.072 265.864L309.551 260.737L507.282 135.275M109.54 396.566L306.771 274.692L315.122 269.645L511 145.608M117.228 404.328L312.423 283.728L320.775 278.681L514.617 155.917M124.941 411.987L318.1 292.661L326.324 287.693L518.13 166.203M132.708 419.876L323.83 301.823L331.928 296.935L521.697 176.719M140.398 427.638L329.508 310.756L337.605 305.868L525.338 186.926M148.213 435.32L335.263 319.815L343.233 315.006L529.034 197.362M155.98 443.209L341.019 328.874L348.861 324.145L532.625 207.774M163.67 450.971L346.672 337.91L354.515 333.181L536.243 218.084M171.517 458.986L352.347 346.841L360.063 342.192L539.754 228.368M179.197 466.311L358.15 355.694L365.738 351.124L543.497 238.598M186.758 474.153L363.675 364.81L371.16 360.216L546.883 248.964M194.527 482.042L369.408 373.972L376.869 369.482L550.556 259.504M202.318 489.827L375.186 382.928L382.52 378.517L554.171 269.813M210.006 497.588L380.814 392.066L388.044 387.632L557.659 280.201M217.903 505.399L386.699 401.047L393.905 396.716L561.587 290.583M225.614 513.057L392.374 409.979L399.453 405.728L565.098 300.868M233.277 520.922L398.001 419.118L404.977 414.843L568.586 311.257M240.944 528.787L403.631 428.256L410.583 424.085L572.156 321.773M248.655 536.445L409.307 437.188L416.131 433.096L575.819 331.875M256.471 544.128L415.086 446.145L421.807 442.029L579.411 342.288M264.16 551.89L420.763 455.077L427.46 451.064L583.029 352.597M271.904 559.882L426.518 464.136L433.088 460.203L586.62 363.01M279.56 567.31L432.194 473.068L438.661 469.112L590.236 373.319M287.327 575.199L437.925 482.231L444.368 478.378L593.852 383.629M294.913 582.937L443.499 491.14L449.814 487.366L597.365 393.914M302.783 590.849L449.333 500.325L455.544 496.528L601.059 404.35M310.496 598.508L455.009 509.258L461.197 505.564L604.652 414.763M318.288 606.294L460.765 518.318L466.826 514.703L608.268 425.073M325.953 614.159L466.394 527.456L472.352 523.818L611.758 435.461M333.712 621.61L472.141 536.078L478.075 532.543L615.548 445.484M341.377 629.476L477.77 545.217L483.576 541.762L619.013 455.977M349.249 637.388L483.605 554.404L489.308 550.925L622.709 466.413M356.857 645.023L489.177 563.312L494.753 559.913L626.118 476.675M364.625 652.911L494.909 572.474L500.461 569.178L629.789 487.214M372.21 660.65L500.482 581.383L505.93 578.063L633.326 497.397M380.002 668.435L506.238 590.442L511.559 587.202L636.919 507.809M387.715 676.094L511.914 599.375L517.212 596.238L640.535 518.119M395.768 684.158L517.931 608.712L523.125 605.552L644.413 528.706M403.56 691.944L523.687 617.772L528.754 614.691L648.005 539.119M410.859 699.506L528.973 626.504L534.016 623.527L651.334 549.253M418.675 707.189L534.753 635.461L539.692 632.46L654.975 559.459" stroke="url(#paint0_linear_628_217)" stroke-miterlimit="10" stroke-linecap="round"/>
<defs>
<linearGradient id="paint0_linear_628_217" x1="429.881" y1="-15.1169" x2="269.469" y2="681.27" gradientUnits="userSpaceOnUse">
<stop offset="0.4115" stop-color="#32E685"/>
<stop offset="0.9988" stop-color="#32E685"/>
</linearGradient>
</defs>
</svg>
